<svg id="visual" viewBox="0 0 900 600" width="900" height="600" xmlns="http://www.w3.org/2000/svg" xmlns:xlink="http://www.w3.org/1999/xlink" version="1.1"><path d="M0 97L37.5 98C75 99 150 101 225 97C300 93 375 83 450 91C525 99 600 125 675 144C750 163 825 175 862.5 181L900 187L900 0L862.5 0C825 0 750 0 675 0C600 0 525 0 450 0C375 0 300 0 225 0C150 0 75 0 37.5 0L0 0Z" fill="#ffffff"></path><path d="M0 187L37.5 186C75 185 150 183 225 180C300 177 375 173 450 182C525 191 600 213 675 224C750 235 825 235 862.5 235L900 235L900 185L862.5 179C825 173 750 161 675 142C600 123 525 97 450 89C375 81 300 91 225 95C150 99 75 97 37.5 96L0 95Z" fill="#d7d6ff"></path><path d="M0 343L37.5 342C75 341 150 339 225 335C300 331 375 325 450 330C525 335 600 351 675 366C750 381 825 395 862.5 402L900 409L900 233L862.5 233C825 233 750 233 675 222C600 211 525 189 450 180C375 171 300 175 225 178C150 181 75 183 37.5 184L0 185Z" fill="#acafff"></path><path d="M0 451L37.5 438C75 425 150 399 225 389C300 379 375 385 450 395C525 405 600 419 675 429C750 439 825 445 862.5 448L900 451L900 407L862.5 400C825 393 750 379 675 364C600 349 525 333 450 328C375 323 300 329 225 333C150 337 75 339 37.5 340L0 341Z" fill="#7789ff"></path><path d="M0 601L37.5 601C75 601 150 601 225 601C300 601 375 601 450 601C525 601 600 601 675 601C750 601 825 601 862.5 601L900 601L900 449L862.5 446C825 443 750 437 675 427C600 417 525 403 450 393C375 383 300 377 225 387C150 397 75 423 37.5 436L0 449Z" fill="#0066ff"></path></svg>