<svg id="visual" viewBox="0 0 900 600" width="900" height="600" xmlns="http://www.w3.org/2000/svg" xmlns:xlink="http://www.w3.org/1999/xlink" version="1.1"><rect x="0" y="0" width="900" height="600" fill="#FFFFFF"></rect><defs><linearGradient id="grad1_0" x1="33.3%" y1="100%" x2="100%" y2="0%"><stop offset="20%" stop-color="#4592be" stop-opacity="1"></stop><stop offset="80%" stop-color="#4592be" stop-opacity="1"></stop></linearGradient></defs><defs><linearGradient id="grad1_1" x1="33.3%" y1="100%" x2="100%" y2="0%"><stop offset="20%" stop-color="#4592be" stop-opacity="1"></stop><stop offset="80%" stop-color="#66a1c7" stop-opacity="1"></stop></linearGradient></defs><defs><linearGradient id="grad1_2" x1="33.3%" y1="100%" x2="100%" y2="0%"><stop offset="20%" stop-color="#82b0d0" stop-opacity="1"></stop><stop offset="80%" stop-color="#66a1c7" stop-opacity="1"></stop></linearGradient></defs><defs><linearGradient id="grad1_3" x1="33.3%" y1="100%" x2="100%" y2="0%"><stop offset="20%" stop-color="#82b0d0" stop-opacity="1"></stop><stop offset="80%" stop-color="#9cbfda" stop-opacity="1"></stop></linearGradient></defs><defs><linearGradient id="grad1_4" x1="33.3%" y1="100%" x2="100%" y2="0%"><stop offset="20%" stop-color="#b5cfe3" stop-opacity="1"></stop><stop offset="80%" stop-color="#9cbfda" stop-opacity="1"></stop></linearGradient></defs><defs><linearGradient id="grad1_5" x1="33.3%" y1="100%" x2="100%" y2="0%"><stop offset="20%" stop-color="#b5cfe3" stop-opacity="1"></stop><stop offset="80%" stop-color="#cedfec" stop-opacity="1"></stop></linearGradient></defs><defs><linearGradient id="grad1_6" x1="33.3%" y1="100%" x2="100%" y2="0%"><stop offset="20%" stop-color="#e7eff6" stop-opacity="1"></stop><stop offset="80%" stop-color="#cedfec" stop-opacity="1"></stop></linearGradient></defs><defs><linearGradient id="grad1_7" x1="33.3%" y1="100%" x2="100%" y2="0%"><stop offset="20%" stop-color="#e7eff6" stop-opacity="1"></stop><stop offset="80%" stop-color="#ffffff" stop-opacity="1"></stop></linearGradient></defs><defs><linearGradient id="grad2_0" x1="0%" y1="100%" x2="66.7%" y2="0%"><stop offset="20%" stop-color="#4592be" stop-opacity="1"></stop><stop offset="80%" stop-color="#4592be" stop-opacity="1"></stop></linearGradient></defs><defs><linearGradient id="grad2_1" x1="0%" y1="100%" x2="66.7%" y2="0%"><stop offset="20%" stop-color="#66a1c7" stop-opacity="1"></stop><stop offset="80%" stop-color="#4592be" stop-opacity="1"></stop></linearGradient></defs><defs><linearGradient id="grad2_2" x1="0%" y1="100%" x2="66.7%" y2="0%"><stop offset="20%" stop-color="#66a1c7" stop-opacity="1"></stop><stop offset="80%" stop-color="#82b0d0" stop-opacity="1"></stop></linearGradient></defs><defs><linearGradient id="grad2_3" x1="0%" y1="100%" x2="66.7%" y2="0%"><stop offset="20%" stop-color="#9cbfda" stop-opacity="1"></stop><stop offset="80%" stop-color="#82b0d0" stop-opacity="1"></stop></linearGradient></defs><defs><linearGradient id="grad2_4" x1="0%" y1="100%" x2="66.7%" y2="0%"><stop offset="20%" stop-color="#9cbfda" stop-opacity="1"></stop><stop offset="80%" stop-color="#b5cfe3" stop-opacity="1"></stop></linearGradient></defs><defs><linearGradient id="grad2_5" x1="0%" y1="100%" x2="66.7%" y2="0%"><stop offset="20%" stop-color="#cedfec" stop-opacity="1"></stop><stop offset="80%" stop-color="#b5cfe3" stop-opacity="1"></stop></linearGradient></defs><defs><linearGradient id="grad2_6" x1="0%" y1="100%" x2="66.7%" y2="0%"><stop offset="20%" stop-color="#cedfec" stop-opacity="1"></stop><stop offset="80%" stop-color="#e7eff6" stop-opacity="1"></stop></linearGradient></defs><defs><linearGradient id="grad2_7" x1="0%" y1="100%" x2="66.7%" y2="0%"><stop offset="20%" stop-color="#ffffff" stop-opacity="1"></stop><stop offset="80%" stop-color="#e7eff6" stop-opacity="1"></stop></linearGradient></defs><g transform="translate(900, 600)"><path d="M-405.6 0C-389.1 -68.4 -372.6 -136.8 -338.6 -195.5C-304.7 -254.2 -253.3 -303.4 -194 -336C-134.7 -368.7 -67.3 -384.8 0 -401L0 0Z" fill="#f3f7fa"></path><path d="M-354.9 0C-340.5 -59.8 -326 -119.7 -296.3 -171.1C-266.6 -222.5 -221.7 -265.5 -169.8 -294C-117.8 -322.6 -58.9 -336.7 0 -350.9L0 0Z" fill="#dae7f1"></path><path d="M-304.2 0C-291.8 -51.3 -279.4 -102.6 -254 -146.6C-228.5 -190.7 -190 -227.5 -145.5 -252C-101 -276.5 -50.5 -288.6 0 -300.7L0 0Z" fill="#c2d7e8"></path><path d="M-253.5 0C-243.2 -42.7 -232.8 -85.5 -211.6 -122.2C-190.4 -158.9 -158.3 -189.6 -121.3 -210C-84.2 -230.4 -42.1 -240.5 0 -250.6L0 0Z" fill="#a9c7de"></path><path d="M-202.8 0C-194.5 -34.2 -186.3 -68.4 -169.3 -97.8C-152.3 -127.1 -126.7 -151.7 -97 -168C-67.3 -184.3 -33.7 -192.4 0 -200.5L0 0Z" fill="#8fb8d5"></path><path d="M-152.1 0C-145.9 -25.6 -139.7 -51.3 -127 -73.3C-114.3 -95.3 -95 -113.8 -72.8 -126C-50.5 -138.2 -25.2 -144.3 0 -150.4L0 0Z" fill="#74a8cc"></path><path d="M-101.4 0C-97.3 -17.1 -93.1 -34.2 -84.7 -48.9C-76.2 -63.6 -63.3 -75.8 -48.5 -84C-33.7 -92.2 -16.8 -96.2 0 -100.2L0 0Z" fill="#5699c3"></path><path d="M-50.7 0C-48.6 -8.5 -46.6 -17.1 -42.3 -24.4C-38.1 -31.8 -31.7 -37.9 -24.3 -42C-16.8 -46.1 -8.4 -48.1 0 -50.1L0 0Z" fill="#4592be"></path></g><g transform="translate(0, 0)"><path d="M405.6 0C387.6 67.3 369.6 134.6 336 194C302.4 253.4 253.1 304.9 194.5 336.9C135.9 368.9 67.9 381.4 0 394L0 0Z" fill="#f3f7fa"></path><path d="M354.9 0C339.2 58.9 323.4 117.8 294 169.7C264.6 221.7 221.5 266.8 170.2 294.8C118.9 322.8 59.5 333.8 0 344.8L0 0Z" fill="#dae7f1"></path><path d="M304.2 0C290.7 50.5 277.2 101 252 145.5C226.8 190 189.8 228.7 145.9 252.7C101.9 276.7 51 286.1 0 295.5L0 0Z" fill="#c2d7e8"></path><path d="M253.5 0C242.3 42.1 231 84.1 210 121.2C189 158.4 158.2 190.5 121.6 210.6C84.9 230.6 42.5 238.4 0 246.3L0 0Z" fill="#a9c7de"></path><path d="M202.8 0C193.8 33.7 184.8 67.3 168 97C151.2 126.7 126.6 152.4 97.3 168.4C67.9 184.4 34 190.7 0 197L0 0Z" fill="#8fb8d5"></path><path d="M152.1 0C145.4 25.2 138.6 50.5 126 72.7C113.4 95 94.9 114.3 72.9 126.3C51 138.3 25.5 143 0 147.8L0 0Z" fill="#74a8cc"></path><path d="M101.4 0C96.9 16.8 92.4 33.7 84 48.5C75.6 63.3 63.3 76.2 48.6 84.2C34 92.2 17 95.4 0 98.5L0 0Z" fill="#5699c3"></path><path d="M50.7 0C48.5 8.4 46.2 16.8 42 24.2C37.8 31.7 31.6 38.1 24.3 42.1C17 46.1 8.5 47.7 0 49.3L0 0Z" fill="#4592be"></path></g></svg>